<svg class="bi bi-display" width="5.559" height="19.572" fill="currentColor" version="1.1" viewBox="0 0 5.559 19.572" xmlns="http://www.w3.org/2000/svg"><path d="m0.59429 0.1139c-0.62767 1.2627-0.68563 4.84-0.50486 6.7863 0.14119 1.5202 1.1996 1.9118 1.7758 2.5917 0.42646 0.50318 0.39592 0.45874 0.45716 3.961 0.05914 3.3824-0.28254 5.6181-0.28254 5.6181s0.40481 0.42068 0.871 0.50064c0.46505-0.08635 0.86405-0.51254 0.86405-0.51254s-0.43371-2.2308-0.42098-5.6141c0.01318-3.5028-0.01674-3.4579 0.40277-3.9669 0.56678-0.68765 1.6197-1.0938 1.74-2.6158 0.15405-1.9486 0.04701-5.5248-0.59793-6.7788-0.13506 0.34898-0.3169 3.2418-0.3366 5.0948-0.01268 1.1924-0.08738 1.3508-0.57209 1.3689-0.61512 0.02296-0.62507-0.224-0.73186-2.6021-0.07887-1.7562-0.16511-2.4801-0.51235-3.9451-0.3271 1.4696-0.40341 2.1947-0.45817 3.9518-0.07416 2.3794-0.08072 2.6264-0.6961 2.6119-0.48491-0.01144-0.56178-0.1688-0.59082-1.3609-0.04512-1.8525-0.26664-4.7426-0.40647-5.0897z"/></svg>
